<mxfile host="app.diagrams.net" modified="2023-10-25T06:53:30.430Z" agent="Mozilla/5.0 (Windows NT 10.0; Win64; x64) AppleWebKit/537.36 (KHTML, like Gecko) Chrome/118.0.0.0 Safari/537.36" etag="oZeuGxsC_XOqU0QtFKow" version="22.0.7" type="github">
  <diagram name="Page-1" id="uc5E4VnDEcuxlyGCEYc7">
    <mxGraphModel dx="880" dy="456" grid="1" gridSize="10" guides="1" tooltips="1" connect="1" arrows="1" fold="1" page="1" pageScale="1" pageWidth="850" pageHeight="1100" math="0" shadow="0">
      <root>
        <mxCell id="0" />
        <mxCell id="1" parent="0" />
        <mxCell id="vSolP7uHwzwEL7p-_V9n-6" style="edgeStyle=orthogonalEdgeStyle;rounded=0;orthogonalLoop=1;jettySize=auto;html=1;entryX=0.5;entryY=0;entryDx=0;entryDy=0;" edge="1" parent="1" source="vSolP7uHwzwEL7p-_V9n-2" target="vSolP7uHwzwEL7p-_V9n-3">
          <mxGeometry relative="1" as="geometry" />
        </mxCell>
        <mxCell id="vSolP7uHwzwEL7p-_V9n-2" value="MULAI" style="strokeWidth=2;html=1;shape=mxgraph.flowchart.start_1;whiteSpace=wrap;" vertex="1" parent="1">
          <mxGeometry x="315" y="60" width="100" height="60" as="geometry" />
        </mxCell>
        <mxCell id="vSolP7uHwzwEL7p-_V9n-7" style="edgeStyle=orthogonalEdgeStyle;rounded=0;orthogonalLoop=1;jettySize=auto;html=1;entryX=0.5;entryY=0;entryDx=0;entryDy=0;" edge="1" parent="1" source="vSolP7uHwzwEL7p-_V9n-3" target="vSolP7uHwzwEL7p-_V9n-5">
          <mxGeometry relative="1" as="geometry" />
        </mxCell>
        <mxCell id="vSolP7uHwzwEL7p-_V9n-3" value="INPUT ALAS" style="shape=parallelogram;html=1;strokeWidth=2;perimeter=parallelogramPerimeter;whiteSpace=wrap;rounded=1;arcSize=12;size=0.23;" vertex="1" parent="1">
          <mxGeometry x="260" y="160" width="210" height="60" as="geometry" />
        </mxCell>
        <mxCell id="vSolP7uHwzwEL7p-_V9n-9" style="edgeStyle=orthogonalEdgeStyle;rounded=0;orthogonalLoop=1;jettySize=auto;html=1;exitX=0.5;exitY=1;exitDx=0;exitDy=0;entryX=0.5;entryY=0;entryDx=0;entryDy=0;" edge="1" parent="1" source="vSolP7uHwzwEL7p-_V9n-5" target="vSolP7uHwzwEL7p-_V9n-8">
          <mxGeometry relative="1" as="geometry" />
        </mxCell>
        <mxCell id="vSolP7uHwzwEL7p-_V9n-5" value="INPUT TINGGI" style="shape=parallelogram;html=1;strokeWidth=2;perimeter=parallelogramPerimeter;whiteSpace=wrap;rounded=1;arcSize=12;size=0.23;" vertex="1" parent="1">
          <mxGeometry x="260" y="280" width="210" height="60" as="geometry" />
        </mxCell>
        <mxCell id="vSolP7uHwzwEL7p-_V9n-12" value="" style="edgeStyle=orthogonalEdgeStyle;rounded=0;orthogonalLoop=1;jettySize=auto;html=1;" edge="1" parent="1" source="vSolP7uHwzwEL7p-_V9n-8" target="vSolP7uHwzwEL7p-_V9n-11">
          <mxGeometry relative="1" as="geometry" />
        </mxCell>
        <mxCell id="vSolP7uHwzwEL7p-_V9n-8" value="LUAS = 1/2*(ALAS *TINGGI)" style="rounded=1;whiteSpace=wrap;html=1;absoluteArcSize=1;arcSize=14;strokeWidth=2;" vertex="1" parent="1">
          <mxGeometry x="260" y="400" width="210" height="100" as="geometry" />
        </mxCell>
        <mxCell id="vSolP7uHwzwEL7p-_V9n-10" value="SELESAI" style="strokeWidth=2;html=1;shape=mxgraph.flowchart.start_1;whiteSpace=wrap;" vertex="1" parent="1">
          <mxGeometry x="315" y="660" width="100" height="60" as="geometry" />
        </mxCell>
        <mxCell id="vSolP7uHwzwEL7p-_V9n-13" value="" style="edgeStyle=orthogonalEdgeStyle;rounded=0;orthogonalLoop=1;jettySize=auto;html=1;" edge="1" parent="1" source="vSolP7uHwzwEL7p-_V9n-11" target="vSolP7uHwzwEL7p-_V9n-10">
          <mxGeometry relative="1" as="geometry" />
        </mxCell>
        <mxCell id="vSolP7uHwzwEL7p-_V9n-11" value="" style="shape=parallelogram;html=1;strokeWidth=2;perimeter=parallelogramPerimeter;whiteSpace=wrap;rounded=1;arcSize=12;size=0.23;" vertex="1" parent="1">
          <mxGeometry x="260" y="550" width="210" height="60" as="geometry" />
        </mxCell>
      </root>
    </mxGraphModel>
  </diagram>
</mxfile>
